<?xml version="1.0" standalone="no"?>
<!DOCTYPE svg PUBLIC "-//W3C//DTD SVG 20010904//EN"
 "http://www.w3.org/TR/2001/REC-SVG-20010904/DTD/svg10.dtd">
<svg version="1.0" xmlns="http://www.w3.org/2000/svg"
 width="606.000000pt" height="134.000000pt" viewBox="0 0 606.000000 134.000000"
 preserveAspectRatio="xMidYMid meet">

<g transform="translate(0.000000,134.000000) scale(0.100000,-0.100000)"
fill="" stroke="none">
<path d="M340 1151 c0 -4 -19 -11 -42 -14 -24 -3 -44 -11 -46 -16 -2 -6 -10
-11 -18 -11 -8 0 -17 -7 -20 -15 -4 -8 -12 -15 -19 -15 -18 0 -122 -104 -130
-129 -3 -12 -10 -21 -15 -21 -4 0 -11 -12 -15 -27 -3 -15 -12 -31 -18 -35 -17
-11 -17 -330 1 -336 6 -2 12 -10 12 -18 0 -8 6 -17 14 -20 8 -3 17 -17 21 -31
8 -32 112 -137 145 -148 14 -4 28 -13 32 -19 10 -16 266 -15 276 1 4 7 27 15
50 19 23 4 42 10 42 14 0 5 14 11 30 15 17 4 30 11 30 16 0 5 8 13 18 16 9 4
30 20 46 36 24 23 30 40 34 83 4 46 1 57 -19 79 -13 13 -34 25 -46 25 -13 0
-23 5 -23 10 0 6 -16 10 -35 10 -19 0 -35 -4 -35 -9 0 -5 -11 -12 -25 -15 -14
-4 -25 -10 -25 -15 0 -5 -13 -12 -30 -16 -16 -4 -30 -10 -30 -15 0 -11 -81
-30 -129 -30 -45 0 -83 28 -96 70 -4 14 -13 28 -19 32 -6 4 -11 36 -11 76 0
52 4 73 18 86 9 10 17 24 17 32 0 8 5 14 10 14 6 0 10 7 10 15 0 9 8 19 18 22
9 4 20 11 24 17 4 6 41 11 85 11 l79 0 46 -49 47 -48 58 4 c83 6 106 30 106
111 0 40 -4 62 -14 68 -8 4 -14 12 -14 17 0 10 -99 112 -109 112 -4 0 -14 7
-22 15 -9 8 -24 15 -35 15 -10 0 -19 5 -19 10 0 6 -42 10 -105 10 -58 0 -105
-4 -105 -9z"/>
<path d="M3368 1133 c-16 -2 -28 -8 -28 -13 0 -5 -13 -11 -30 -15 -16 -4 -30
-10 -30 -15 0 -4 -12 -11 -26 -14 -14 -4 -36 -18 -48 -31 -13 -14 -27 -25 -32
-25 -11 0 -44 -36 -44 -48 0 -4 -9 -15 -20 -25 -11 -9 -20 -23 -20 -31 0 -8
-7 -16 -15 -20 -8 -3 -15 -12 -15 -20 0 -8 -6 -16 -12 -18 -18 -6 -18 -315 -1
-326 6 -4 14 -19 18 -34 4 -15 13 -29 21 -32 8 -3 14 -12 14 -21 0 -8 4 -15
10 -15 5 0 12 -11 16 -25 3 -13 14 -27 24 -30 9 -3 30 -19 46 -35 16 -16 34
-30 41 -30 6 0 13 -5 15 -11 2 -5 22 -13 46 -16 23 -3 42 -10 42 -14 0 -5 47
-9 105 -9 58 0 105 4 105 9 0 5 25 13 55 16 30 4 55 11 55 15 0 4 16 11 35 14
19 4 35 11 35 16 0 4 14 11 30 15 17 4 30 11 30 16 0 5 6 9 14 9 8 0 28 14 45
31 27 26 31 38 31 83 0 44 -5 58 -27 82 -24 26 -32 28 -100 28 -45 0 -77 -4
-81 -11 -4 -6 -20 -15 -35 -18 -15 -4 -27 -11 -27 -15 0 -5 -22 -14 -50 -21
-27 -7 -50 -16 -50 -21 0 -4 -25 -8 -55 -8 -30 0 -55 3 -55 8 0 4 -13 13 -30
20 -16 7 -32 23 -36 35 -4 12 -12 25 -18 29 -7 4 -11 40 -11 88 0 48 4 84 11
88 6 4 15 18 19 30 11 36 43 63 81 69 19 3 34 10 34 14 0 5 29 9 65 9 36 0 65
-3 65 -7 0 -5 17 -19 37 -33 21 -14 47 -35 59 -47 16 -18 33 -23 68 -23 25 0
46 5 46 10 0 6 10 10 23 10 38 0 62 38 62 99 0 35 -5 56 -12 59 -7 2 -13 10
-13 17 0 17 -87 105 -105 105 -7 0 -15 7 -19 15 -3 8 -12 15 -20 15 -8 0 -16
6 -18 12 -3 9 -45 13 -149 14 -79 1 -156 0 -171 -3z"/>
<path d="M5033 1005 c-17 -19 -34 -43 -38 -54 -3 -12 -10 -21 -15 -21 -4 0
-11 -12 -15 -27 -3 -15 -12 -31 -18 -35 -7 -4 -51 -8 -99 -8 -52 0 -88 -4 -88
-10 0 -5 -6 -10 -12 -10 -7 0 -24 -12 -37 -25 -20 -22 -23 -33 -19 -74 4 -43
11 -56 53 -97 l47 -48 -6 -60 c-3 -33 -11 -63 -17 -67 -6 -3 -12 -38 -13 -76
-1 -56 3 -73 18 -89 26 -26 115 -27 140 -2 10 10 23 18 31 18 7 0 15 7 19 15
3 8 12 15 21 15 8 0 15 5 15 10 0 6 6 10 14 10 8 0 21 6 28 13 25 25 48 27 65
7 10 -11 23 -20 30 -20 7 0 13 -4 13 -10 0 -5 11 -12 25 -16 14 -3 25 -10 25
-15 0 -5 8 -13 18 -16 9 -4 23 -13 30 -20 7 -7 22 -13 33 -13 10 0 19 -4 19
-10 0 -5 9 -10 20 -10 11 0 20 5 20 10 0 6 11 10 24 10 19 0 26 7 31 30 4 16
11 30 16 30 5 0 9 23 9 50 0 28 -4 50 -9 50 -5 0 -12 22 -16 50 -4 27 -11 52
-16 56 -21 12 -6 48 36 91 25 24 45 51 45 59 0 8 5 14 10 14 6 0 10 20 10 44
0 38 -4 46 -22 52 -13 4 -26 11 -29 17 -4 5 -41 12 -82 15 -74 4 -76 5 -82 33
-4 16 -10 29 -15 29 -4 0 -11 12 -14 26 -4 15 -27 46 -51 70 -37 37 -49 44
-82 43 -29 -1 -45 -8 -70 -34z"/>
<path d="M1010 971 c0 -4 -27 -11 -60 -15 -33 -4 -60 -11 -60 -16 0 -6 -5 -10
-11 -10 -6 0 -22 -10 -35 -22 -35 -33 -34 -113 1 -147 22 -20 33 -23 74 -19
l50 5 3 -197 3 -197 32 -31 c22 -22 41 -32 62 -32 17 0 31 4 31 9 0 5 11 12
24 15 13 3 26 16 30 28 3 13 6 116 6 231 l0 207 39 0 c41 0 88 19 102 42 10
15 11 73 3 106 -5 16 -16 24 -45 28 -22 4 -39 10 -39 15 0 5 -47 9 -105 9 -58
0 -105 -4 -105 -9z"/>
<path d="M5720 971 c0 -4 -26 -11 -57 -14 -32 -3 -59 -11 -61 -17 -2 -5 -9
-10 -16 -10 -7 0 -25 -11 -40 -25 -38 -35 -37 -105 1 -141 23 -21 36 -25 75
-22 l48 3 0 -187 c0 -119 4 -188 10 -188 6 0 10 -6 10 -14 0 -28 48 -66 85
-66 19 0 35 5 35 10 0 6 7 10 16 10 9 0 18 9 21 20 3 11 9 20 14 20 5 0 9 97
9 215 l0 215 45 0 c25 0 45 5 45 10 0 6 6 10 13 10 22 0 47 39 47 76 0 39 -38
84 -71 84 -11 0 -19 5 -19 10 0 6 -42 10 -105 10 -58 0 -105 -4 -105 -9z"/>
<path d="M1483 953 c-18 -2 -33 -8 -33 -14 0 -5 -6 -9 -14 -9 -7 0 -26 -12
-42 -27 -26 -24 -29 -32 -27 -86 2 -69 9 -77 73 -77 l45 0 0 -210 c0 -143 4
-213 11 -218 6 -4 14 -17 18 -29 4 -13 18 -26 32 -29 13 -3 24 -10 24 -15 0
-5 16 -9 37 -9 28 0 42 7 65 32 28 32 37 71 18 83 -14 9 -13 85 1 85 6 0 29
-18 50 -40 21 -22 50 -42 64 -46 14 -3 25 -10 25 -14 0 -5 23 -11 50 -15 28
-4 50 -11 50 -16 0 -5 9 -9 20 -9 11 0 20 4 20 9 0 5 11 12 25 15 38 10 65 42
67 80 1 42 -44 93 -91 102 -17 4 -31 10 -31 14 0 5 -13 11 -30 15 -33 7 -40
32 -12 42 23 9 82 67 82 81 0 6 6 12 13 15 16 5 17 135 1 145 -6 4 -15 18 -19
32 -8 26 -28 50 -42 50 -5 0 -16 9 -26 20 -9 11 -23 20 -31 20 -8 0 -16 6 -18
13 -4 9 -48 12 -174 13 -93 1 -184 0 -201 -3z m282 -233 c8 -24 -1 -40 -21
-40 -8 0 -14 -4 -14 -10 0 -5 -7 -10 -15 -10 -11 0 -15 11 -15 40 0 38 2 40
29 40 21 0 32 -6 36 -20z"/>
<path d="M2168 953 c-10 -2 -18 -11 -18 -18 0 -7 -6 -15 -12 -17 -10 -4 -13
-72 -13 -294 l0 -290 29 -27 c16 -15 35 -27 42 -27 8 0 14 -4 14 -10 0 -6 38
-10 95 -10 52 0 95 4 95 9 0 5 25 11 55 13 47 4 60 10 85 38 28 32 42 90 21
90 -5 0 -12 11 -15 24 -4 17 -15 26 -36 31 -16 4 -30 11 -30 16 0 12 -43 12
-55 0 -6 -5 -35 -11 -65 -13 l-55 -3 4 135 c2 74 7 136 12 138 13 5 11 162 -1
162 -5 0 -10 6 -10 14 0 38 -71 58 -142 39z"/>
<path d="M4536 952 c-38 -8 -78 -60 -84 -108 -2 -24 -9 -44 -13 -44 -5 0 -9
-25 -9 -55 l0 -55 -120 0 -120 0 0 44 c0 25 5 48 10 51 23 14 5 82 -32 118
-18 19 -108 24 -108 7 0 -5 -6 -10 -14 -10 -14 0 -26 -29 -26 -67 0 -13 -4
-23 -10 -23 -6 0 -10 -28 -10 -64 0 -58 -3 -67 -30 -94 -25 -25 -30 -39 -30
-76 0 -25 4 -46 9 -46 5 0 11 -9 14 -20 3 -11 12 -20 21 -20 13 0 16 -13 16
-70 0 -38 4 -70 9 -70 5 0 11 -13 14 -30 5 -21 14 -31 32 -36 14 -3 25 -10 25
-15 0 -5 11 -9 25 -9 14 0 25 5 25 10 0 6 11 10 24 10 31 0 39 32 35 138 l-4
77 116 3 117 3 7 -87 c9 -112 24 -129 111 -129 97 0 93 -14 97 321 2 158 2
296 -1 306 -2 10 -11 18 -18 18 -8 0 -14 4 -14 9 0 11 -38 18 -64 13z"/>
<path d="M2730 820 c0 -5 -6 -10 -13 -10 -18 0 -43 -32 -51 -65 -10 -41 -26
-51 -89 -59 -31 -4 -57 -12 -57 -17 0 -5 -7 -9 -15 -9 -18 0 -29 -57 -20 -99
5 -22 14 -33 31 -37 13 -3 24 -10 24 -15 0 -5 23 -9 50 -9 l50 0 0 -37 c0 -20
7 -53 16 -74 14 -30 23 -38 51 -42 20 -4 49 -3 65 0 38 7 58 51 58 123 l0 50
44 0 c62 0 96 32 96 89 0 42 -23 81 -47 81 -7 0 -13 5 -13 10 0 6 -11 10 -25
10 -20 0 -25 6 -31 35 -3 19 -9 35 -13 35 -4 0 -14 11 -21 25 -11 20 -21 25
-52 25 -21 0 -38 -4 -38 -10z"/>
</g>
</svg>
